<?xml version="1.0" encoding="UTF-8"?>
<!DOCTYPE svg PUBLIC "-//W3C//DTD SVG 1.1//EN" "http://www.w3.org/Graphics/SVG/1.1/DTD/svg11.dtd">
<!-- Creator: CorelDRAW -->
<svg xmlns="http://www.w3.org/2000/svg" xml:space="preserve" width="110px" height="111px" style="shape-rendering:geometricPrecision; text-rendering:geometricPrecision; image-rendering:optimizeQuality; fill-rule:evenodd; clip-rule:evenodd"
viewBox="0 0 0.567953 0.571838"
 xmlns:xlink="http://www.w3.org/1999/xlink">
 <defs>
  <style type="text/css">
   <![CDATA[
    .str0 {stroke:#4C4C4C;stroke-width:0.0051186}
    .fil1 {fill:none}
    .fil0 {fill:white}
   ]]>
  </style>
 </defs>
 <g id="Capa_x0020_1">
  <metadata id="CorelCorpID_0Corel-Layer"/>
  <g id="_196839632">
   <rect id="_199271880" class="fil0 str0" transform="matrix(1.23329E-014 -0.465665 0.465665 1.23329E-014 0.00256593 0.567333)" width="1.20864" height="1.20862"/>
   <polygon id="_199271832" class="fil0 str0" points="0.00256232,0.201493 0.00256232,0.00450823 0.143272,0.0889258 0.143272,0.285922 "/>
   <polygon id="_199271784" class="fil0 str0" points="0.283976,0.201493 0.283976,0.00450823 0.143272,0.0889258 0.143272,0.285922 "/>
   <polygon id="_199271736" class="fil0 str0" points="0.283976,0.201493 0.283976,0.00450823 0.42468,0.0889258 0.42468,0.285922 "/>
   <polygon id="_199271688" class="fil0 str0" points="0.56539,0.201493 0.56539,0.00450823 0.42468,0.0889258 0.42468,0.285922 "/>
   <polygon id="_199271640" class="fil0 str0" points="0.143272,0.482901 0.143272,0.285922 0.00256232,0.370334 0.00256232,0.567336 "/>
   <polygon id="_199271592" class="fil0 str0" points="0.143272,0.482901 0.143272,0.285922 0.283976,0.370334 0.283976,0.567336 "/>
   <polygon id="_195542288" class="fil0 str0" points="0.42468,0.482901 0.42468,0.285922 0.283976,0.370334 0.283976,0.567336 "/>
   <polygon id="_196839488" class="fil0 str0" points="0.42468,0.482901 0.42468,0.285922 0.56539,0.370334 0.56539,0.567336 "/>
  </g>
  <polygon class="fil1 str0" points="0.00256232,0.00450823 0.56539,0.00450823 0.56539,0.567336 0.00256232,0.567336 "/>
 </g>
</svg>
