<?xml version="1.0" encoding="UTF-8"?>
<!DOCTYPE svg PUBLIC "-//W3C//DTD SVG 1.1//EN" "http://www.w3.org/Graphics/SVG/1.1/DTD/svg11.dtd">
<!-- Creator: CorelDRAW -->
<svg xmlns="http://www.w3.org/2000/svg" xml:space="preserve" width="110px" height="110px" style="shape-rendering:geometricPrecision; text-rendering:geometricPrecision; image-rendering:optimizeQuality; fill-rule:evenodd; clip-rule:evenodd"
viewBox="0 0 2.75014 2.75017"
 xmlns:xlink="http://www.w3.org/1999/xlink">
 <defs>
  <style type="text/css">
   <![CDATA[
    .str0 {stroke:#4C4C4C;stroke-width:0.0247855}
    .fil0 {fill:none}
    .fil1 {fill:#7F7F7F;fill-rule:nonzero}
   ]]>
  </style>
 </defs>
 <g id="Capa_x0020_1">
  <metadata id="CorelCorpID_0Corel-Layer"/>
  <rect class="fil0 str0" x="0.0124218" y="0.0124198" width="2.72531" height="2.72533"/>
  <path class="fil1" d="M0.531528 1.20536l0.0446842 0 -0.0428406 0.205161c-0.00348226,0.0169431 -0.00520877,0.0296139 -0.00520877,0.0377782 0,0.0179381 0.00699379,0.0323061 0.021157,0.0432796 0.0141339,0.0108857 0.0318671,0.0163871 0.0533167,0.0163871 0.0169139,0 0.0327743,-0.00395047 0.0473764,-0.0117344 0.0146899,-0.00784241 0.0262779,-0.0193427 0.0347641,-0.0345008 0.00854472,-0.0151581 0.016153,-0.0393876 0.0230005,-0.0726594l0.0384512 -0.183711 0.0446257 0 -0.0407337 0.195826c-0.00699379,0.0333302 -0.016153,0.0598423 -0.0275948,0.0793605 -0.0113539,0.019489 -0.0271265,0.0351153 -0.0473178,0.0468496 -0.0202205,0.0117344 -0.0436015,0.0176454 -0.0703183,0.0176454 -0.0251952,0 -0.0470252,-0.00421383 -0.0654607,-0.0125244 -0.018494,-0.00831061 -0.0323061,-0.0198987 -0.0414945,-0.0345885 -0.00915923,-0.0147484 -0.0137535,-0.0314574 -0.0137535,-0.0500978 0,-0.0116758 0.00313111,-0.0318086 0.00933481,-0.0603105l0.0380123 -0.18216z"/>
  <path id="1" class="fil1" d="M0.791293 1.53913l0.0505953 -0.241769 0.03731 0 -0.00886661 0.0421383c0.0162408,-0.0165627 0.0313989,-0.0286775 0.0455621,-0.0362273 0.0140461,-0.00760831 0.0285019,-0.0114125 0.0431918,-0.0114125 0.0195768,0 0.034969,0.00535508 0.0461766,0.0159189 0.0110906,0.0106516 0.0166798,0.0248733 0.0166798,0.0425773 0,0.00901292 -0.00193134,0.0230883 -0.00588181,0.0423724l-0.0307844 0.146401 -0.0411727 0 0.032072 -0.153249c0.00318964,-0.0148362 0.00482835,-0.0258683 0.00482835,-0.0329498 0,-0.00807651 -0.00280922,-0.0146021 -0.00831061,-0.0195768 -0.00558918,-0.00506245 -0.0136072,-0.00754978 -0.0240247,-0.00754978 -0.0211277,0 -0.0399436,0.00760831 -0.0563308,0.0227664 -0.0164749,0.0151581 -0.0285897,0.0412019 -0.0363736,0.0781022l-0.0233809 0.112457 -0.0412897 0z"/>
  <path id="12" class="fil1" d="M1.10915 1.25206l0.00980301 -0.0467033 0.0409386 0 -0.00971523 0.0467033 -0.0410263 0zm-0.0600764 0.287067l0.0505367 -0.241769 0.0411727 0 -0.0505075 0.241769 -0.0412019 0z"/>
  <polygon id="123" class="fil1" points="1.16035,1.43897 1.16908,1.39776 1.29473,1.39776 1.28624,1.43897 "/>
  <path id="1234" class="fil1" d="M1.47642 1.45099l0.0411727 0.00436015c-0.0103297,0.0302284 -0.0250196,0.0526144 -0.0440404,0.0673043 -0.01905,0.0146021 -0.0407337,0.0219178 -0.0649925,0.0219178 -0.0262487,0 -0.0475519,-0.00848619 -0.0638805,-0.0254878 -0.0162993,-0.0170309 -0.0244636,-0.0407337 -0.0244636,-0.0712547 0,-0.0264242 0.00520877,-0.0523803 0.0156848,-0.0778681 0.0105053,-0.0254878 0.0254878,-0.0448598 0.0450061,-0.058145 0.0195182,-0.0132853 0.0417287,-0.0199572 0.0668361,-0.0199572 0.025956,0 0.0464692,0.00737421 0.0616273,0.0219763 0.0152166,0.0146899 0.0227664,0.0340326 0.0227664,0.0582036l-0.0404996 0.00272143c-0.000146314,-0.0153922 -0.00456499,-0.0273607 -0.0132853,-0.0359639 -0.00877882,-0.0086325 -0.0202791,-0.0129927 -0.0345008,-0.0129927 -0.0165627,0 -0.0309307,0.00520877 -0.0430455,0.0157141 -0.0121148,0.0104761 -0.0216837,0.0263365 -0.0285897,0.0476982 -0.00693527,0.0213033 -0.010359,0.0418164 -0.010359,0.0615688 0,0.0206595 0.00459425,0.0361102 0.013695,0.0464692 0.00910071,0.0103297 0.0203669,0.0154507 0.0336521,0.0154507 0.0133438,0 0.0261901,-0.00506245 0.0383927,-0.0152166 0.0122026,-0.0101834 0.02183,-0.0256634 0.0288238,-0.0464985z"/>
  <path id="12345" class="fil1" d="M1.54993 1.44736c0,-0.0471715 0.0138998,-0.0862665 0.0416701,-0.117197 0.0229127,-0.0255756 0.0529948,-0.0383049 0.0901292,-0.0383049 0.0291457,0 0.0527022,0.00915923 0.0704939,0.0273314 0.0177917,0.0182014 0.0267169,0.0428406 0.0267169,0.0737713 0,0.0277996 -0.00558918,0.0536093 -0.0168553,0.0775462 -0.0111784,0.0238491 -0.0271851,0.0421969 -0.0478738,0.0549554 -0.0207473,0.0127293 -0.0425773,0.0191086 -0.0655192,0.0191086 -0.0187867,0 -0.0358761,-0.00397973 -0.0512683,-0.0120562 -0.0153922,-0.00798872 -0.0272143,-0.0194305 -0.0352909,-0.0341203 -0.0081643,-0.0147484 -0.0122026,-0.0317793 -0.0122026,-0.0510342zm0.0412019 -0.00403826c0,0.0227664 0.00550139,0.0400021 0.0163871,0.0517365 0.0109443,0.0117344 0.0248733,0.0176454 0.0416409,0.0176454 0.00886661,0 0.0175869,-0.00178503 0.0261901,-0.00535508 0.00872029,-0.00357005 0.016709,-0.00895439 0.024171,-0.0162408 0.00740347,-0.00731568 0.0137535,-0.0156263 0.0189622,-0.0249611 0.00529655,-0.00930555 0.00948112,-0.0193427 0.0126708,-0.0301406 0.00474056,-0.0150703 0.00708158,-0.0294676 0.00708158,-0.0432796 0,-0.0218593 -0.00553066,-0.0387731 -0.0165627,-0.0509171 -0.0109443,-0.012027 -0.0247855,-0.0180258 -0.0414945,-0.0180258 -0.0129049,0 -0.0246977,0.00304332 -0.0352909,0.0091885 -0.0106224,0.00611591 -0.0202791,0.0151288 -0.0288238,0.026951 -0.00854472,0.0118807 -0.0148362,0.0256341 -0.0188745,0.0413482 -0.00403826,0.0156848 -0.00605738,0.0296724 -0.00605738,0.0420505z"/>
  <polygon id="123456" class="fil1" points="1.79878,1.53913 1.86848,1.20536 1.90966,1.20536 1.83995,1.53913 "/>
  <path id="1234567" class="fil1" d="M1.91285 1.44736c0,-0.0471715 0.0138998,-0.0862665 0.0416701,-0.117197 0.0229127,-0.0255756 0.0529948,-0.0383049 0.0901292,-0.0383049 0.0291457,0 0.0527022,0.00915923 0.0704939,0.0273314 0.0177917,0.0182014 0.0267169,0.0428406 0.0267169,0.0737713 0,0.0277996 -0.00558918,0.0536093 -0.0168553,0.0775462 -0.0111784,0.0238491 -0.0271851,0.0421969 -0.0478738,0.0549554 -0.0207473,0.0127293 -0.0425773,0.0191086 -0.0655192,0.0191086 -0.0187867,0 -0.0358761,-0.00397973 -0.0512683,-0.0120562 -0.0153922,-0.00798872 -0.0272143,-0.0194305 -0.0352909,-0.0341203 -0.0081643,-0.0147484 -0.0122026,-0.0317793 -0.0122026,-0.0510342zm0.0412019 -0.00403826c0,0.0227664 0.00550139,0.0400021 0.0163871,0.0517365 0.0109443,0.0117344 0.0248733,0.0176454 0.0416409,0.0176454 0.00886661,0 0.0175869,-0.00178503 0.0261901,-0.00535508 0.00872029,-0.00357005 0.016709,-0.00895439 0.024171,-0.0162408 0.00740347,-0.00731568 0.0137535,-0.0156263 0.0189622,-0.0249611 0.00529655,-0.00930555 0.00948112,-0.0193427 0.0126708,-0.0301406 0.00474056,-0.0150703 0.00708158,-0.0294676 0.00708158,-0.0432796 0,-0.0218593 -0.00553066,-0.0387731 -0.0165627,-0.0509171 -0.0109443,-0.012027 -0.0247855,-0.0180258 -0.0414945,-0.0180258 -0.0129049,0 -0.0246977,0.00304332 -0.0352909,0.0091885 -0.0106224,0.00611591 -0.0202791,0.0151288 -0.0288238,0.026951 -0.00854472,0.0118807 -0.0148362,0.0256341 -0.0188745,0.0413482 -0.00403826,0.0156848 -0.00605738,0.0296724 -0.00605738,0.0420505z"/>
  <path id="12345678" class="fil1" d="M2.16486 1.53913l0.0505953 -0.241769 0.0363736 0 -0.0101834 0.0493662c0.0124367,-0.0186696 0.0245514,-0.0324816 0.0365199,-0.041436 0.0119099,-0.00892513 0.0241125,-0.0134316 0.0365491,-0.0134316 0.00813504,0 0.0182599,0.00295554 0.0302869,0.00892513l-0.0168553 0.0382464c-0.00714011,-0.00520877 -0.0150118,-0.00778389 -0.0234687,-0.00778389 -0.014368,0 -0.0292335,0.00807651 -0.0443623,0.024171 -0.0152459,0.0160945 -0.0271265,0.0450061 -0.0357591,0.0867347l-0.0205132 0.0969767 -0.0391828 0z"/>
 </g>
</svg>
