<?xml version="1.0" encoding="UTF-8"?>
<!DOCTYPE svg PUBLIC "-//W3C//DTD SVG 1.1//EN" "http://www.w3.org/Graphics/SVG/1.1/DTD/svg11.dtd">
<!-- Creator: CorelDRAW -->
<svg xmlns="http://www.w3.org/2000/svg" xml:space="preserve" width="110px" height="110px" style="shape-rendering:geometricPrecision; text-rendering:geometricPrecision; image-rendering:optimizeQuality; fill-rule:evenodd; clip-rule:evenodd"
viewBox="0 0 0.711437 0.712133"
 xmlns:xlink="http://www.w3.org/1999/xlink">
 <defs>
  <style type="text/css">
   <![CDATA[
    .str0 {stroke:#4C4C4C;stroke-width:0.00640792}
    .fil0 {fill:white}
   ]]>
  </style>
 </defs>
 <g id="Capa_x0020_1">
  <metadata id="CorelCorpID_0Corel-Layer"/>
  <g id="_203627088">
   <rect id="_206584352" class="fil0 str0" x="0.00342337" y="0.00377138" width="0.704591" height="0.704591"/>
   <path id="_206584304" class="fil0 str0" d="M0.179966 0.179921c-0.00643818,0.114245 0.0585186,0.157739 0.175752,0.176146 -0.0073082,-0.125223 -0.0791495,-0.164609 -0.175752,-0.176146z"/>
   <path id="_206584256" class="fil0 str0" d="M0.179966 0.532213c-0.00643818,-0.114245 0.0585186,-0.157739 0.175752,-0.176146 -0.0073082,0.125223 -0.0791495,0.164609 -0.175752,0.176146z"/>
   <path id="_206584208" class="fil0 str0" d="M0.17918 0.179921c0.00643818,0.114245 -0.0585261,0.157739 -0.175752,0.176146 0.00730064,-0.125223 0.0791495,-0.164609 0.175752,-0.176146z"/>
   <path id="_206584160" class="fil0 str0" d="M0.17918 0.532213c0.00643818,-0.114245 -0.0585261,-0.157739 -0.175752,-0.176146 0.00730064,0.125223 0.0791495,0.164609 0.175752,0.176146z"/>
   <path id="_206584112" class="fil0 str0" d="M0.531471 0.179921c0.00643818,0.114245 -0.0585186,0.157739 -0.175752,0.176146 0.0073082,-0.125223 0.0791495,-0.164609 0.175752,-0.176146z"/>
   <path id="_206584064" class="fil0 str0" d="M0.531471 0.532213c0.00643818,-0.114245 -0.0585186,-0.157739 -0.175752,-0.176146 0.0073082,0.125223 0.0791495,0.164609 0.175752,0.176146z"/>
   <path id="_206584016" class="fil0 str0" d="M0.532258 0.179921c-0.00643818,0.114245 0.0585261,0.157739 0.175752,0.176146 -0.00730064,-0.125223 -0.0791495,-0.164609 -0.175752,-0.176146z"/>
   <path id="_206583968" class="fil0 str0" d="M0.70801 0.356067c-0.00730064,-0.125223 -0.0791495,-0.164609 -0.175752,-0.176146 0.0966029,-0.0115373 0.168452,-0.0509229 0.175752,-0.176153l0 0.352299z"/>
   <path id="_206583920" class="fil0 str0" d="M0.532258 0.532213c-0.00643818,-0.114245 0.0585261,-0.157739 0.175752,-0.176146 -0.00730064,0.125223 -0.0791495,0.164609 -0.175752,0.176146z"/>
   <path id="_206583872" class="fil0 str0" d="M0.179966 0.179921c-0.00643818,-0.114253 0.0585186,-0.157739 0.175752,-0.176153 -0.0073082,0.12523 -0.0791495,0.164609 -0.175752,0.176153z"/>
   <path id="_206583824" class="fil0 str0" d="M0.179966 0.532213c-0.00643818,0.114253 0.0585186,0.157739 0.175752,0.176146 -0.0073082,-0.125223 -0.0791495,-0.164601 -0.175752,-0.176146z"/>
   <path id="_203621952" class="fil0 str0" d="M0.17918 0.179921c0.00643818,-0.114253 -0.0585261,-0.157739 -0.175752,-0.176153 0.00730064,0.12523 0.0791495,0.164609 0.175752,0.176153z"/>
   <path id="_206583656" class="fil0 str0" d="M0.17918 0.532213c0.00643818,0.114253 -0.0585261,0.157739 -0.175752,0.176146 0.00730064,-0.125223 0.0791495,-0.164601 0.175752,-0.176146z"/>
   <path id="_206583608" class="fil0 str0" d="M0.531471 0.179921c0.00643818,-0.114253 -0.0585186,-0.157739 -0.175752,-0.176153 0.0073082,0.12523 0.0791495,0.164609 0.175752,0.176153z"/>
   <path id="_206583560" class="fil0 str0" d="M0.531471 0.532213c0.00643818,0.114253 -0.0585186,0.157739 -0.175752,0.176146 0.0073082,-0.125223 0.0791495,-0.164601 0.175752,-0.176146z"/>
   <path id="_206583512" class="fil0 str0" d="M0.532258 0.179921c-0.00643818,-0.114253 0.0585261,-0.157739 0.175752,-0.176153 -0.00730064,0.12523 -0.0791495,0.164609 -0.175752,0.176153z"/>
   <path id="_206583464" class="fil0 str0" d="M0.532258 0.532213c-0.00643818,0.114253 0.0585261,0.157739 0.175752,0.176146 -0.00730064,-0.125223 -0.0791495,-0.164601 -0.175752,-0.176146z"/>
   <path id="_206583416" class="fil0 str0" d="M0.179966 0.179921c0.0965954,0.0115373 0.168444,0.0509229 0.175752,0.176146 0.0073082,-0.125223 0.079157,-0.164609 0.175752,-0.176146 -0.0963911,-0.0115146 -0.168142,-0.050764 -0.175707,-0.175351 -4.53926e-005,-0.000922982 -4.53926e-005,-0.000900286 -9.07851e-005,7.56543e-006 -0.00757299,0.12458 -0.0793159,0.163829 -0.175707,0.175344z"/>
   <path id="_206583368" class="fil0 str0" d="M0.17918 0.179921c-0.00644574,0.114245 0.0593054,0.157739 0.176539,0.176146 -0.117234,0.0184067 -0.181177,0.0608185 -0.176539,0.176146 0.0087532,-0.155409 -0.175631,-0.176168 -0.175563,-0.176176 0.117105,-0.0184294 0.181994,-0.0619381 0.175563,-0.176116z"/>
   <path id="_206583320" class="fil0 str0" d="M0.532258 0.532213c0.00443334,-0.117014 -0.0619381,-0.158738 -0.176539,-0.176146 0.117234,-0.0184067 0.181177,-0.0619003 0.176539,-0.176146 -0.00643061,0.114124 0.0583824,0.157641 0.175382,0.176085 0.000416098,6.05234e-005 0.000431229,6.05234e-005 7.56543e-006,0.000113481 -0.116999,0.0184445 -0.18182,0.0619684 -0.175389,0.176093z"/>
   <path id="_206583272" class="fil0 str0" d="M0.355741 0.707912c0.00745951,-0.124867 0.0792478,-0.164177 0.17573,-0.175699 -0.0965954,-0.0115373 -0.168444,-0.0509229 -0.175752,-0.176146 -0.0073082,0.125223 -0.079157,0.164609 -0.175752,0.176146 0.0964819,0.0115221 0.16827,0.0508245 0.17573,0.175692 2.26963e-005,0.000514449 2.26963e-005,0.00052958 4.53926e-005,7.56543e-006z"/>
   <path id="_206583224" class="fil0 str0" d="M0.70801 0.708358c-0.00730064,-0.125223 -0.0791495,-0.164609 -0.175752,-0.176146 0.0966029,-0.0115373 0.168452,-0.0509229 0.175752,-0.176146l0 0.352292z"/>
   <path id="_206583176" class="fil0 str0" d="M0.00342714 0.00376758c0.00730064,0.12523 0.0791495,0.164616 0.175752,0.176153 -0.0966029,0.0115373 -0.168452,0.0509229 -0.175752,0.176146l0 -0.352299z"/>
   <path id="_206583128" class="fil0 str0" d="M0.00342714 0.356067c0.00730064,0.125223 0.0791495,0.164609 0.175752,0.176146 -0.0966029,0.0115373 -0.168452,0.0509229 -0.175752,0.176146l0 -0.352292z"/>
  </g>
 </g>
</svg>
