<?xml version="1.0" encoding="UTF-8"?>
<!DOCTYPE svg PUBLIC "-//W3C//DTD SVG 1.1//EN" "http://www.w3.org/Graphics/SVG/1.1/DTD/svg11.dtd">
<!-- Creator: CorelDRAW -->
<svg xmlns="http://www.w3.org/2000/svg" xml:space="preserve" width="111px" height="111px" style="shape-rendering:geometricPrecision; text-rendering:geometricPrecision; image-rendering:optimizeQuality; fill-rule:evenodd; clip-rule:evenodd"
viewBox="0 0 0.495301 0.495301"
 xmlns:xlink="http://www.w3.org/1999/xlink">
 <defs>
  <style type="text/css">
   <![CDATA[
    .str0 {stroke:#605D5C;stroke-width:0.00446383}
    .fil1 {fill:none}
    .fil0 {fill:white}
   ]]>
  </style>
 </defs>
 <g id="Plan_x0020_1">
  <metadata id="CorelCorpID_0Corel-Layer"/>
  <g id="_115959072">
   <rect id="_115960296" class="fil0 str0" x="0.00223708" y="0.00223718" width="0.490826" height="0.490826"/>
   <path id="_115960248" class="fil1 str0" d="M0.053703 0.24765c0.00419505,0.00670365 0.0106668,0.0123533 0.0176867,0.0137657 0.00327277,0.0150674 0.00580245,0.0205115 0.0125008,0.0217869 0.00688811,-0.000400533 0.0112623,-0.00842172 0.0117946,-0.0201373 0.0125799,0.0012543 0.0204272,-0.00997115 0.0237368,-0.0153151 -0.00330966,-0.00533868 -0.0111569,-0.0150042 -0.0237368,-0.0137499 -0.000532287,-0.0117103 -0.00490652,-0.0197315 -0.0117946,-0.020132 -0.00669838,0.00127538 -0.00922806,0.00671946 -0.0125008,0.0217869 -0.00701986,0.0014124 -0.0134916,0.00529125 -0.0176867,0.0119949z"/>
   <path id="_115960200" class="fil1 str0" d="M0.24765 0.441598c0.00670365,-0.00419505 0.0123533,-0.0106668 0.0137657,-0.0176867 0.0150674,-0.00327277 0.0205115,-0.00580245 0.0217869,-0.0125008 -0.000400533,-0.00688811 -0.00842172,-0.0112623 -0.0201373,-0.0117946 0.0012543,-0.0125799 -0.00997115,-0.0204272 -0.0153151,-0.0237368 -0.00533868,0.00330966 -0.0150042,0.0111569 -0.0137499,0.0237368 -0.0117103,0.000532287 -0.0197315,0.00490652 -0.020132,0.0117946 0.00127538,0.00669838 0.00671946,0.00922806 0.0217869,0.0125008 0.0014124,0.00701986 0.00529125,0.0134916 0.0119949,0.0176867z"/>
   <path id="_115960152" class="fil1 str0" d="M0.441598 0.24765c-0.00419505,-0.00670365 -0.0106668,-0.0123533 -0.0176867,-0.0137657 -0.00327277,-0.0150674 -0.00580245,-0.0205115 -0.0125008,-0.0217869 -0.00688811,0.000400533 -0.0112623,0.00842172 -0.0117946,0.0201373 -0.0125799,-0.0012543 -0.0204272,0.00997115 -0.0237368,0.0153151 0.00330966,0.00533868 0.0111569,0.0150042 0.0237368,0.0137499 0.000532287,0.0117103 0.00490652,0.0197315 0.0117946,0.020132 0.00669838,-0.00127538 0.00922806,-0.00671946 0.0125008,-0.0217869 0.00701986,-0.0014124 0.0134916,-0.00529125 0.0176867,-0.0119949z"/>
   <path id="_115960104" class="fil1 str0" d="M0.24765 0.053703c-0.00670365,0.00419505 -0.0123533,0.0106668 -0.0137657,0.0176867 -0.0150674,0.00327277 -0.0205115,0.00580245 -0.0217869,0.0125008 0.000400533,0.00688811 0.00842172,0.0112623 0.0201373,0.0117946 -0.0012543,0.0125799 0.00997115,0.0204272 0.0153151,0.0237368 0.00533868,-0.00330966 0.0150042,-0.0111569 0.0137499,-0.0237368 0.0117103,-0.000532287 0.0197315,-0.00490652 0.020132,-0.0117946 -0.00127538,-0.00669838 -0.00671946,-0.00922806 -0.0217869,-0.0125008 -0.0014124,-0.00701986 -0.00529125,-0.0134916 -0.0119949,-0.0176867z"/>
   <path id="_115960056" class="fil0 str0" d="M0.493066 0.00223455l-5.27017e-006 0.245416c-0.0124587,-0.0102505 -0.0255708,-0.0135812 -0.0395052,-0.0120634 -0.00869577,-0.0498083 -0.0348147,-0.072254 -0.0737138,-0.0746308 -0.0164535,-0.00100133 -0.0290386,0.000200266 -0.0416396,0.0117999 -0.00937562,0.00863253 -0.0154258,0.0206643 -0.0102294,0.0326487 0.00387884,0.00894874 0.0102505,0.0154416 0.0203165,0.0129066 0.003921,-0.000985521 0.00673527,-0.00313575 0.00834794,-0.00574975 0.00453234,-0.00734661 -0.000374182,-0.0183876 -0.0168066,-0.0178026 0.00736242,-0.0154469 0.0176656,-0.0176551 0.0309201,-0.00661933 0.00367858,-0.00202374 0.00735715,-0.00404749 0.0110357,-0.00607123 0.0216288,0.0596477 -0.0803226,0.0730445 -0.0716848,0.00332547l-0.000194996 -0.000194996c-0.069719,0.0086378 -0.0563223,-0.0933135 0.00332547,-0.0716848 -0.00202374,0.00367858 -0.00404749,0.00735715 -0.00607123,0.0110357 0.0110357,0.0132545 0.00882753,0.0235576 -0.00661933,0.0309201 0.000584988,-0.0164324 -0.010456,-0.0213389 -0.0178026,-0.0168066 -0.002614,0.00161267 -0.00476423,0.00442694 -0.00574975,0.00834794 -0.00253495,0.010066 0.00395789,0.0164376 0.0129066,0.0203165 0.0119844,0.00519638 0.0240161,-0.000853767 0.0326434,-0.0102294 0.0116049,-0.012601 0.0128065,-0.0251861 0.0118052,-0.0416396 -0.00237684,-0.0388991 -0.0248225,-0.065018 -0.0746308,-0.0737138 0.00151781,-0.0139343 -0.00181294,-0.0270465 -0.0120634,-0.0395052l0.245416 -5.27017e-006z"/>
   <path id="_115960008" class="fil0 str0" d="M0.00223455 0.00223455l0.245416 5.27017e-006c-0.0102505,0.0124587 -0.0135812,0.0255708 -0.0120634,0.0395052 -0.0498083,0.00869577 -0.072254,0.0348147 -0.0746308,0.0737138 -0.00100133,0.0164535 0.000200266,0.0290386 0.0117999,0.0416396 0.00863253,0.00937562 0.0206643,0.0154258 0.0326487,0.0102294 0.00894874,-0.00387884 0.0154416,-0.0102505 0.0129066,-0.0203165 -0.000985521,-0.003921 -0.00313575,-0.00673527 -0.00574975,-0.00834794 -0.00734661,-0.00453234 -0.0183876,0.000374182 -0.0178026,0.0168066 -0.0154469,-0.00736242 -0.0176551,-0.0176656 -0.00661933,-0.0309201 -0.00202374,-0.00367858 -0.00404749,-0.00735715 -0.00607123,-0.0110357 0.0596477,-0.0216288 0.0730445,0.0803226 0.00332547,0.0716848l-0.000194996 0.000194996c0.0086378,0.069719 -0.0933135,0.0563223 -0.0716848,-0.00332547 0.00367858,0.00202374 0.00735715,0.00404749 0.0110357,0.00607123 0.0132545,-0.0110357 0.0235576,-0.00882753 0.0309201,0.00661933 -0.0164324,-0.000584988 -0.0213389,0.010456 -0.0168066,0.0178026 0.00161267,0.002614 0.00442694,0.00476423 0.00834794,0.00574975 0.010066,0.00253495 0.0164376,-0.00395789 0.0203165,-0.0129066 0.00519638,-0.0119844 -0.000853767,-0.0240161 -0.0102294,-0.0326434 -0.012601,-0.0116049 -0.0251861,-0.0128065 -0.0416396,-0.0118052 -0.0388991,0.00237684 -0.065018,0.0248225 -0.0737138,0.0746308 -0.0139343,-0.00151781 -0.0270465,0.00181294 -0.0395052,0.0120634l-5.27017e-006 -0.245416z"/>
   <path id="_115959960" class="fil0 str0" d="M0.00223455 0.493066l5.27017e-006 -0.245416c0.0124587,0.0102505 0.0255708,0.0135812 0.0395052,0.0120634 0.00869577,0.0498083 0.0348147,0.072254 0.0737138,0.0746308 0.0164535,0.00100133 0.0290386,-0.000200266 0.0416396,-0.0117999 0.00937562,-0.00863253 0.0154258,-0.0206643 0.0102294,-0.0326487 -0.00387884,-0.00894874 -0.0102505,-0.0154416 -0.0203165,-0.0129066 -0.003921,0.000985521 -0.00673527,0.00313575 -0.00834794,0.00574975 -0.00453234,0.00734661 0.000374182,0.0183876 0.0168066,0.0178026 -0.00736242,0.0154469 -0.0176656,0.0176551 -0.0309201,0.00661933 -0.00367858,0.00202374 -0.00735715,0.00404749 -0.0110357,0.00607123 -0.0216288,-0.0596477 0.0803226,-0.0730445 0.0716848,-0.00332547l0.000194996 0.000194996c0.069719,-0.0086378 0.0563223,0.0933135 -0.00332547,0.0716848 0.00202374,-0.00367858 0.00404749,-0.00735715 0.00607123,-0.0110357 -0.0110357,-0.0132545 -0.00882753,-0.0235576 0.00661933,-0.0309201 -0.000584988,0.0164324 0.010456,0.0213389 0.0178026,0.0168066 0.002614,-0.00161267 0.00476423,-0.00442694 0.00574975,-0.00834794 0.00253495,-0.010066 -0.00395789,-0.0164376 -0.0129066,-0.0203165 -0.0119844,-0.00519638 -0.0240161,0.000853767 -0.0326434,0.0102294 -0.0116049,0.012601 -0.0128065,0.0251861 -0.0118052,0.0416396 0.00237684,0.0388991 0.0248225,0.065018 0.0746308,0.0737138 -0.00151781,0.0139343 0.00181294,0.0270465 0.0120634,0.0395052l-0.245416 5.27017e-006z"/>
   <path id="_115959912" class="fil0 str0" d="M0.493066 0.493066l-0.245416 -5.27017e-006c0.0102505,-0.0124587 0.0135812,-0.0255708 0.0120634,-0.0395052 0.0498083,-0.00869577 0.072254,-0.0348147 0.0746308,-0.0737138 0.00100133,-0.0164535 -0.000200266,-0.0290386 -0.0117999,-0.0416396 -0.00863253,-0.00937562 -0.0206643,-0.0154258 -0.0326487,-0.0102294 -0.00894874,0.00387884 -0.0154416,0.0102505 -0.0129066,0.0203165 0.000985521,0.003921 0.00313575,0.00673527 0.00574975,0.00834794 0.00734661,0.00453234 0.0183876,-0.000374182 0.0178026,-0.0168066 0.0154469,0.00736242 0.0176551,0.0176656 0.00661933,0.0309201 0.00202374,0.00367858 0.00404749,0.00735715 0.00607123,0.0110357 -0.0596477,0.0216288 -0.0730445,-0.0803226 -0.00332547,-0.0716848l0.000194996 -0.000194996c-0.0086378,-0.069719 0.0933135,-0.0563223 0.0716848,0.00332547 -0.00367858,-0.00202374 -0.00735715,-0.00404749 -0.0110357,-0.00607123 -0.0132545,0.0110357 -0.0235576,0.00882753 -0.0309201,-0.00661933 0.0164324,0.000584988 0.0213389,-0.010456 0.0168066,-0.0178026 -0.00161267,-0.002614 -0.00442694,-0.00476423 -0.00834794,-0.00574975 -0.010066,-0.00253495 -0.0164376,0.00395789 -0.0203165,0.0129066 -0.00519638,0.0119844 0.000853767,0.0240161 0.0102294,0.0326434 0.012601,0.0116049 0.0251861,0.0128065 0.0416396,0.0118052 0.0388991,-0.00237684 0.065018,-0.0248225 0.0737138,-0.0746308 0.0139343,0.00151781 0.0270465,-0.00181294 0.0395052,-0.0120634l5.27017e-006 0.245416z"/>
   <path id="_115959864" class="fil1 str0" d="M0.269906 0.247582c-0.00246644,0.0107722 0.000337291,0.0164324 0.00786309,0.0175444 0.00839537,0.00123849 0.0117841,-0.00856929 0.0197526,-0.00109092 0.00331493,0.00729391 0.000500666,0.0120792 -0.00651392,0.0151465 0.00903306,0.00559165 0.00855875,0.0136128 0.00435843,0.0164956 -0.00288278,0.00420032 -0.0105456,0.00447964 -0.0161372,-0.00455869 -0.00306197,0.00701459 -0.00784728,0.00982886 -0.0151465,0.00651392 -0.00229252,-0.00244536 -0.00398952,-0.00511733 -0.00259292,-0.00896982 0.00152835,-0.00422667 0.00424775,-0.00490125 0.00379979,-0.0097867 -0.000753634,-0.00825835 -0.00641906,-0.0116523 -0.0176603,-0.00908049 -0.0107722,-0.00246644 -0.0163428,0.000442694 -0.0174548,0.00797376 -0.00123849,0.00839537 0.00856929,0.0117841 0.00109092,0.0197526 -0.00729391,0.00331493 -0.0120792,0.000500666 -0.0151465,-0.00651392 -0.00559165,0.00903306 -0.0136128,0.00855875 -0.0164956,0.00435843 -0.00420032,-0.00288278 -0.00447964,-0.0105456 0.00455869,-0.0161372 -0.00701459,-0.00306197 -0.00982886,-0.00784728 -0.00651392,-0.0151465 0.00244536,-0.00229252 0.00511733,-0.00398952 0.00896982,-0.00259292 0.00422667,0.00152835 0.00490125,0.00424775 0.0097867,0.00379979 0.00825835,-0.000753634 0.0116523,-0.00641906 0.00908049,-0.0176603 0.00246644,-0.0107722 -0.000442694,-0.0163428 -0.00797376,-0.0174548 -0.00839537,-0.00123849 -0.0117841,0.00856929 -0.0197526,0.00109092 -0.00331493,-0.00729391 -0.000500666,-0.0120792 0.00651392,-0.0151465 -0.00903306,-0.00559165 -0.00855875,-0.0136128 -0.00435843,-0.0164956 0.00288278,-0.00420032 0.0105456,-0.00447964 0.0161372,0.00455869 0.00306197,-0.00701459 0.00784728,-0.00982886 0.0151465,-0.00651392 0.00229252,0.00244536 0.00398952,0.00511733 0.00259292,0.00896982 -0.00152835,0.00422667 -0.00424775,0.00490125 -0.00379979,0.0097867 0.000753634,0.00825835 0.00641906,0.0116523 0.0176603,0.00908049 0.0107722,0.00246644 0.0163428,-0.000442694 0.0174548,-0.00797376 0.00123849,-0.00839537 -0.00856929,-0.0117841 -0.00109092,-0.0197526 0.00729391,-0.00331493 0.0120792,-0.000500666 0.0151465,0.00651392 0.00559165,-0.00903306 0.0136128,-0.00855875 0.0164956,-0.00435843 0.00420032,0.00288278 0.00447964,0.0105456 -0.00455869,0.0161372 0.00701459,0.00306197 0.00982886,0.00784728 0.00651392,0.0151465 -0.00244536,0.00229252 -0.00511733,0.00398952 -0.00896982,0.00259292 -0.00422667,-0.00152835 -0.00490125,-0.00424248 -0.0097867,-0.00379979 -0.00825835,0.000758904 -0.0115417,0.00632947 -0.00896982,0.0175707z"/>
   <path id="_115959816" class="fil0 str0" d="M0.493061 0.00223455l-0.217436 5.27017e-006 -7.37823e-005 0.0226406c0.0712157,0.0319109 0.0860144,0.0815242 0.0727915,0.121604l0.000474315 0.000474315c0.0400796,-0.0132228 0.0896929,0.00157578 0.121604,0.0727915l0.0226406 -7.90525e-005 0 -0.217436z"/>
   <path id="_115959768" class="fil0 str0" d="M0.00223455 0.00223982l5.27017e-006 0.217436 0.0226406 7.37823e-005c0.0319109,-0.0712157 0.0815242,-0.0860144 0.121604,-0.0727915l0.000474315 -0.000474315c-0.0132228,-0.0400796 0.00157578,-0.0896929 0.0727915,-0.121604l-7.90525e-005 -0.0226406 -0.217436 0z"/>
   <path id="_115959720" class="fil0 str0" d="M0.00223982 0.493066l0.217436 -5.27017e-006 7.37823e-005 -0.0226406c-0.0712157,-0.0319109 -0.0860144,-0.0815242 -0.0727915,-0.121604l-0.000474315 -0.000474315c-0.0400796,0.0132228 -0.0896929,-0.00157578 -0.121604,-0.0727915l-0.0226406 7.90525e-005 0 0.217436z"/>
   <path id="_115959672" class="fil0 str0" d="M0.493066 0.493061l-5.27017e-006 -0.217436 -0.0226406 -7.37823e-005c-0.0319109,0.0712157 -0.0815242,0.0860144 -0.121604,0.0727915l-0.000474315 0.000474315c0.0132228,0.0400796 -0.00157578,0.0896929 -0.0727915,0.121604l7.90525e-005 0.0226406 0.217436 0z"/>
   <path id="_115959624" class="fil1 str0" d="M0.381012 0.114716c-0.00759431,-0.0445382 -0.0344932,-0.0792949 -0.0744569,-0.112476l0.186506 0 0 0.186511c-0.033065,-0.0399531 -0.0676215,-0.0664673 -0.112049,-0.0740353z"/>
   <path id="_115959576" class="fil1 str0" d="M0.114716 0.114289c-0.0445382,0.00759431 -0.0792949,0.0344932 -0.112476,0.0744569l0 -0.186506 0.186511 0c-0.0399531,0.033065 -0.0664673,0.0676215 -0.0740353,0.112049z"/>
   <path id="_115959528" class="fil1 str0" d="M0.114289 0.380585c0.00759431,0.0445382 0.0344932,0.0792949 0.0744569,0.112476l-0.186506 0 0 -0.186511c0.033065,0.0399531 0.0676215,0.0664673 0.112049,0.0740353z"/>
   <path id="_115959480" class="fil1 str0" d="M0.380585 0.381012c0.0445382,-0.00759431 0.0792949,-0.0344932 0.112476,-0.0744569l0 0.186506 -0.186511 0c0.0399531,-0.033065 0.0664673,-0.0676215 0.0740353,-0.112049z"/>
   <path id="_115959432" class="fil0 str0" d="M0.493061 0.00223982l0 0.186511c-0.033065,-0.0399531 -0.0676215,-0.0664673 -0.112049,-0.0740353 -0.00759431,-0.0445382 -0.0344932,-0.0792949 -0.0744569,-0.112476l0.186506 0z"/>
   <path id="_115959384" class="fil0 str0" d="M0.00223982 0.00223982l0.186511 0c-0.0399531,0.033065 -0.0664673,0.0676215 -0.0740353,0.112049 -0.0445382,0.00759431 -0.0792949,0.0344932 -0.112476,0.0744569l0 -0.186506z"/>
   <path id="_115959336" class="fil0 str0" d="M0.00223982 0.493061l0 -0.186511c0.033065,0.0399531 0.0676215,0.0664673 0.112049,0.0740353 0.00759431,0.0445382 0.0344932,0.0792949 0.0744569,0.112476l-0.186506 0z"/>
   <path id="_115959288" class="fil0 str0" d="M0.493061 0.493061l-0.186511 0c0.0399531,-0.033065 0.0664673,-0.0676215 0.0740353,-0.112049 0.0445382,-0.00759431 0.0792949,-0.0344932 0.112476,-0.0744569l0 0.186506z"/>
   <path id="_115959240" class="fil0 str0" d="M0.493061 0.00223982l-0.116508 0c-0.00738877,0.00955481 -0.0181663,0.0187144 -0.00123849,0.0193679 -0.00605542,0.0145246 -0.00120687,0.0206801 0.00488017,0.0258818 0.0129172,-0.0138763 0.0296816,-0.0239845 0.0510047,-0.0269147 0.0148566,-0.000764174 0.0152677,0.0122426 0.000732553,0.0134389 -0.00553894,0.000880118 -0.00979197,0.00254549 -0.0130384,0.00574448 -0.00478004,0.00470626 -0.0113519,0.0055284 -0.0155101,0.00616082 0.000247698,0.00384195 0.00242955,0.00796849 0.00547043,0.0111095 -0.00836902,0.00674581 -0.0162901,0.0137235 -0.0237684,0.0209226 0.00413181,0.0025613 0.0083901,0.00368385 0.0126747,0.00445856 -0.00320953,0.00622934 -0.00646122,0.012427 -0.0062188,0.0216709 0.0092386,0.000242428 0.0155312,-0.00275103 0.0217552,-0.00596583 0.000779984,0.00428991 0.00189726,0.00854821 0.00445856,0.0126853 0.00719378,-0.00748363 0.0141609,-0.01541 0.020912,-0.0237843 0.00313575,0.00304089 0.00725702,0.005228 0.011099,0.00547043 0.00062715,-0.00415816 0.0014493,-0.0107301 0.00616082,-0.0155154 0.00319372,-0.00325169 0.00485909,-0.00750472 0.00573921,-0.0130489 0.00119633,-0.0145404 0.0141926,-0.0141346 0.0134284,0.000737823 -0.00292494,0.0213336 -0.0130331,0.0381086 -0.0268989,0.0510363 0.00520165,0.00608704 0.0113519,0.0109409 0.025866,0.00488544 0.0006535,0.016933 0.00944941,0.00556002 0.0189989,-0.00183402l0 -0.116508z"/>
   <path id="_115959192" class="fil0 str0" d="M0.00223982 0.00223982l0 0.116508c0.00955481,0.00738877 0.0187144,0.0181663 0.0193679,0.00123849 0.0145246,0.00605542 0.0206801,0.00120687 0.0258818,-0.00488017 -0.0138763,-0.0129172 -0.0239845,-0.0296816 -0.0269147,-0.0510047 -0.000764174,-0.0148566 0.0122426,-0.0152677 0.0134389,-0.000732553 0.000880118,0.00553894 0.00254549,0.00979197 0.00574448,0.0130384 0.00470626,0.00478004 0.0055284,0.0113519 0.00616082,0.0155101 0.00384195,-0.000247698 0.00796849,-0.00242955 0.0111095,-0.00547043 0.00674581,0.00836902 0.0137235,0.0162901 0.0209226,0.0237684 0.0025613,-0.00413181 0.00368385,-0.0083901 0.00445856,-0.0126747 0.00622934,0.00320953 0.012427,0.00646122 0.0216709,0.0062188 0.000242428,-0.0092386 -0.00275103,-0.0155312 -0.00596583,-0.0217552 0.00428991,-0.000779984 0.00854821,-0.00189726 0.0126853,-0.00445856 -0.00748363,-0.00719378 -0.01541,-0.0141609 -0.0237843,-0.020912 0.00304089,-0.00313575 0.005228,-0.00725702 0.00547043,-0.011099 -0.00415816,-0.00062715 -0.0107301,-0.0014493 -0.0155154,-0.00616082 -0.00325169,-0.00319372 -0.00750472,-0.00485909 -0.0130489,-0.00573921 -0.0145404,-0.00119633 -0.0141346,-0.0141926 0.000737823,-0.0134284 0.0213336,0.00292494 0.0381086,0.0130331 0.0510363,0.0268989 0.00608704,-0.00520165 0.0109409,-0.0113519 0.00488544,-0.025866 0.016933,-0.0006535 0.00556002,-0.00944941 -0.00183402,-0.0189989l-0.116508 0z"/>
   <path id="_115959144" class="fil0 str0" d="M0.00223982 0.493061l0.116508 0c0.00738877,-0.00955481 0.0181663,-0.0187144 0.00123849,-0.0193679 0.00605542,-0.0145246 0.00120687,-0.0206801 -0.00488017,-0.0258818 -0.0129172,0.0138763 -0.0296816,0.0239845 -0.0510047,0.0269147 -0.0148566,0.000764174 -0.0152677,-0.0122426 -0.000732553,-0.0134389 0.00553894,-0.000880118 0.00979197,-0.00254549 0.0130384,-0.00574448 0.00478004,-0.00470626 0.0113519,-0.0055284 0.0155101,-0.00616082 -0.000247698,-0.00384195 -0.00242955,-0.00796849 -0.00547043,-0.0111095 0.00836902,-0.00674581 0.0162901,-0.0137235 0.0237684,-0.0209226 -0.00413181,-0.0025613 -0.0083901,-0.00368385 -0.0126747,-0.00445856 0.00320953,-0.00622934 0.00646122,-0.012427 0.0062188,-0.0216709 -0.0092386,-0.000242428 -0.0155312,0.00275103 -0.0217552,0.00596583 -0.000779984,-0.00428991 -0.00189726,-0.00854821 -0.00445856,-0.0126853 -0.00719378,0.00748363 -0.0141609,0.01541 -0.020912,0.0237843 -0.00313575,-0.00304089 -0.00725702,-0.005228 -0.011099,-0.00547043 -0.00062715,0.00415816 -0.0014493,0.0107301 -0.00616082,0.0155154 -0.00319372,0.00325169 -0.00485909,0.00750472 -0.00573921,0.0130489 -0.00119633,0.0145404 -0.0141926,0.0141346 -0.0134284,-0.000737823 0.00292494,-0.0213336 0.0130331,-0.0381086 0.0268989,-0.0510363 -0.00520165,-0.00608704 -0.0113519,-0.0109409 -0.025866,-0.00488544 -0.0006535,-0.016933 -0.00944941,-0.00556002 -0.0189989,0.00183402l0 0.116508z"/>
   <path id="_115959096" class="fil0 str0" d="M0.493061 0.493061l0 -0.116508c-0.00955481,-0.00738877 -0.0187144,-0.0181663 -0.0193679,-0.00123849 -0.0145246,-0.00605542 -0.0206801,-0.00120687 -0.0258818,0.00488017 0.0138763,0.0129172 0.0239845,0.0296816 0.0269147,0.0510047 0.000764174,0.0148566 -0.0122426,0.0152677 -0.0134389,0.000732553 -0.000880118,-0.00553894 -0.00254549,-0.00979197 -0.00574448,-0.0130384 -0.00470626,-0.00478004 -0.0055284,-0.0113519 -0.00616082,-0.0155101 -0.00384195,0.000247698 -0.00796849,0.00242955 -0.0111095,0.00547043 -0.00674581,-0.00836902 -0.0137235,-0.0162901 -0.0209226,-0.0237684 -0.0025613,0.00413181 -0.00368385,0.0083901 -0.00445856,0.0126747 -0.00622934,-0.00320953 -0.012427,-0.00646122 -0.0216709,-0.0062188 -0.000242428,0.0092386 0.00275103,0.0155312 0.00596583,0.0217552 -0.00428991,0.000779984 -0.00854821,0.00189726 -0.0126853,0.00445856 0.00748363,0.00719378 0.01541,0.0141609 0.0237843,0.020912 -0.00304089,0.00313575 -0.005228,0.00725702 -0.00547043,0.011099 0.00415816,0.00062715 0.0107301,0.0014493 0.0155154,0.00616082 0.00325169,0.00319372 0.00750472,0.00485909 0.0130489,0.00573921 0.0145404,0.00119633 0.0141346,0.0141926 -0.000737823,0.0134284 -0.0213336,-0.00292494 -0.0381086,-0.0130331 -0.0510363,-0.0268989 -0.00608704,0.00520165 -0.0109409,0.0113519 -0.00488544,0.025866 -0.016933,0.0006535 -0.00556002,0.00944941 0.00183402,0.0189989l0.116508 0z"/>
  </g>
 </g>
</svg>
