<?xml version="1.0" encoding="UTF-8"?>
<!DOCTYPE svg PUBLIC "-//W3C//DTD SVG 1.1//EN" "http://www.w3.org/Graphics/SVG/1.1/DTD/svg11.dtd">
<!-- Creator: CorelDRAW -->
<svg xmlns="http://www.w3.org/2000/svg" xml:space="preserve" width="110px" height="110px" style="shape-rendering:geometricPrecision; text-rendering:geometricPrecision; image-rendering:optimizeQuality; fill-rule:evenodd; clip-rule:evenodd"
viewBox="0 0 0.503625 0.503625"
 xmlns:xlink="http://www.w3.org/1999/xlink">
 <defs>
  <style type="text/css">
   <![CDATA[
    .str0 {stroke:#605D5C;stroke-width:0.00453885}
    .fil0 {fill:none}
   ]]>
  </style>
 </defs>
 <g id="Plan_x0020_1">
  <metadata id="CorelCorpID_0Corel-Layer"/>
  <g id="_241716832">
   <rect id="_241706560" class="fil0 str0" x="0.00227508" y="0.00227508" width="0.499075" height="0.499075"/>
   <path id="_241716760" class="fil0 str0" d="M0.212522 0.501347c-0.0558434,-0.0231765 -0.0839339,-0.0679917 -0.086624,-0.123621 -0.055629,-0.00269009 -0.100444,-0.0307806 -0.123621,-0.086624l0 0.210245 0.210245 0z"/>
   <path id="_241704856" class="fil0 str0" d="M0.501347 0.291103c-0.0231765,0.0558434 -0.0679917,0.0839339 -0.123621,0.086624 -0.00269009,0.055629 -0.0307806,0.100444 -0.086624,0.123621l0.210245 0 0 -0.210245z"/>
   <path id="_241716952" class="fil0 str0" d="M0.291103 0.00227746c0.0558434,0.0231765 0.0839339,0.0679917 0.086624,0.123621 0.055629,0.00269009 0.100444,0.0307806 0.123621,0.086624l0 -0.210245 -0.210245 0z"/>
   <path id="_241717168" class="fil0 str0" d="M0.00227746 0.212522c0.0231765,-0.0558434 0.0679917,-0.0839339 0.123621,-0.086624 0.00269009,-0.055629 0.0307806,-0.100444 0.086624,-0.123621l-0.210245 0 0 0.210245z"/>
   <path id="_241716736" class="fil0 str0" d="M0.0178285 0.257868c0.0129253,0.0673004 0.0580512,0.0979041 0.129976,0.0979523 4.82286e-005,0.0702905 0.0292748,0.114982 0.0934189,0.129044 0.00791485,0.00173623 0.0124859,0.0018702 0.02039,0.00017148 0.0646907,-0.0138684 0.0941637,-0.0586353 0.0942066,-0.129215 0.0697922,-4.28699e-005 0.114345,-0.0288622 0.128744,-0.0920577 0.00191307,-0.0084025 0.0022721,-0.0134183 0.000525156,-0.0218101 -0.0135522,-0.0650443 -0.0586728,-0.0941209 -0.129269,-0.0941476 -4.82286e-005,-0.071089 -0.0299446,-0.115995 -0.0956159,-0.129515 -0.00626436,-0.0012861 -0.00990295,-0.00138791 -0.0161566,-0.000123251 -0.0661107,0.0133593 -0.0961947,0.0583245 -0.0962429,0.129639 -0.0718714,4.82286e-005 -0.116976,0.0306037 -0.129949,0.0977969 -0.000916344,0.00474784 -0.000943138,0.00751831 -2.67937e-005,0.0122661z"/>
   <path id="_241713184" class="fil0 str0" d="M0.0386633 0.259261c0.0064412,0.0324364 0.0274957,0.0591926 0.0593694,0.0699744 0.0266168,0.00900804 0.0498738,0.00114677 0.0658803,-0.02151 0.00204704,-0.00289372 0.00211134,-0.00283477 0.00382614,0.000712712 0.00325275,0.00675737 0.00148973,0.0156261 0.00273831,0.0237874 0.000112533,0.000718071 5.35874e-006,0.000771658 0.000723429,0.00088955 0.00821494,0.00131289 0.0171748,-0.00050908 0.0239857,0.00277047 0.00354748,0.0017148 0.00360643,0.0017791 0.000712712,0.00382614 -0.0226567,0.0160065 -0.030518,0.0392635 -0.02151,0.0658803 0.0107818,0.0318738 0.037538,0.0529282 0.0699744,0.0593694 0.00494611,0.000980649 0.00832212,0.00121107 0.0132575,0.000310807 0.0331706,-0.00604466 0.0606502,-0.0272706 0.0716142,-0.0596803 0.00900804,-0.0266168 0.00114677,-0.0498738 -0.02151,-0.0658803 -0.00289372,-0.00204704 -0.00283477,-0.00211134 0.000712712,-0.00382614 0.00675737,-0.00325275 0.0156261,-0.00148973 0.0237874,-0.00273831 0.000718071,-0.000112533 0.000771658,-5.35874e-006 0.00088955,-0.000723429 0.00131289,-0.00821494 -0.00050908,-0.0171748 0.00277047,-0.0239857 0.0017148,-0.00354748 0.0017791,-0.00360643 0.00382614,-0.000712712 0.0160065,0.0226567 0.0392635,0.030518 0.0658803,0.02151 0.0320881,-0.0108568 0.0532123,-0.0379023 0.0594981,-0.0706282 0.000916344,-0.00478535 0.00102888,-0.00800059 0.000150045,-0.0127806 -0.00608752,-0.0330902 -0.0272974,-0.0604894 -0.0596481,-0.0714373 -0.0266168,-0.00900804 -0.0498738,-0.00114677 -0.0658803,0.02151 -0.00204704,0.00289372 -0.00211134,0.00283477 -0.00382614,-0.000712712 -0.00325275,-0.00675737 -0.00148973,-0.0156261 -0.00273831,-0.0237874 -0.000112533,-0.000718071 -5.35874e-006,-0.000771658 -0.000723429,-0.00088955 -0.00821494,-0.00131289 -0.0171748,0.00050908 -0.0239857,-0.00277047 -0.00354748,-0.0017148 -0.00360643,-0.0017791 -0.000712712,-0.00382614 0.0226567,-0.0160065 0.030518,-0.0392635 0.02151,-0.0658803 -0.0105138,-0.03107 -0.0362036,-0.0518619 -0.0675308,-0.058855 -0.00713784,-0.00159154 -0.0118374,-0.00170944 -0.0189753,-0.000176838 -0.0316969,0.00681095 -0.057735,0.027694 -0.06834,0.0590318 -0.00900804,0.0266168 -0.00114677,0.0498738 0.02151,0.0658803 0.00289372,0.00204704 0.00283477,0.00211134 -0.000712712,0.00382614 -0.00675737,0.00325275 -0.0156261,0.00148973 -0.0237874,0.00273831 -0.000718071,0.000112533 -0.000771658,5.35874e-006 -0.00088955,0.000723429 -0.00131289,0.00821494 0.00050908,0.0171748 -0.00277047,0.0239857 -0.0017148,0.00354748 -0.0017791,0.00360643 -0.00382614,0.000712712 -0.0160065,-0.0226567 -0.0392635,-0.030518 -0.0658803,-0.02151 -0.0318738,0.0107818 -0.0529282,0.037538 -0.0593694,0.0699744 -0.00110926,0.00559452 -0.00110926,0.00930277 0,0.0148973z"/>
   <path id="_217463456" class="fil0 str0" d="M0.00227746 0.501347l0.153715 0c-0.000187556,-0.00135576 -0.000326883,-0.00280798 -0.000600179,-0.0041691 -0.000600179,-0.00297946 -0.00187556,-0.00550342 -0.00589461,-0.00556237 -0.00748616,-0.000112533 -0.0200792,-0.00330098 -0.0276189,-0.00292587 -0.00198273,0.000101816 -0.00170408,-0.000562667 -0.00304376,-0.00200417 -0.00302769,-0.00325811 -0.00614647,-0.00890086 -0.00983864,-0.011189 -0.00129146,-0.000798452 -0.0019613,-0.000525156 -0.00345103,-0.000289372 -0.0204543,0.00329562 -0.0414659,0.0160762 -0.0616255,0.0176302 -0.00169872,0.00012861 -0.00271688,0.000133968 -0.00372432,-0.000648407 -0.00211134,-0.00162906 -0.00496755,-0.00853647 -0.00462995,-0.0111783 0.000160762,-0.00126466 0.000884192,-0.00198273 0.00217565,-0.00309199 0.0153528,-0.0131611 0.0392474,-0.0189753 0.0560417,-0.0311128 0.00122179,-0.000884192 0.00189163,-0.00116285 0.00223459,-0.00264186 0.000996725,-0.00422804 -0.000787734,-0.0104227 -0.000948496,-0.0148705 -7.50223e-005,-0.00196666 -0.000739506,-0.00223995 0.000734147,-0.00357428 0.00559452,-0.00505865 0.0122447,-0.0162209 0.0174534,-0.0215904 0.00280262,-0.00288836 0.00192379,-0.00557309 0.000241143,-0.00810777 -0.00167728,-0.00251861 -0.003376,-0.00421733 -0.00589461,-0.00588925 -0.00253468,-0.001688 -0.00521941,-0.00256683 -0.00810777,0.000235784 -0.00536945,0.00520869 -0.0165317,0.0118589 -0.0215904,0.0174588 -0.00133433,0.00146829 -0.00160762,0.000803811 -0.00357428,0.000734147 -0.00444775,-0.000166121 -0.0106425,-0.00194522 -0.0148705,-0.000953855 -0.00147901,0.000342959 -0.00175767,0.0010128 -0.00264186,0.00223459 -0.0121375,0.0167943 -0.0179518,0.0406889 -0.0311128,0.0560417 -0.00110926,0.00129146 -0.00182733,0.00201489 -0.00309199,0.00217565 -0.00264186,0.0003376 -0.00954927,-0.00251861 -0.0111783,-0.00462995 -0.000782376,-0.00100744 -0.000777017,-0.0020256 -0.000648407,-0.00372432 0.00155403,-0.0201596 0.0143346,-0.0411658 0.0176302,-0.0616255 0.000235784,-0.00148973 0.00050908,-0.00215957 -0.000289372,-0.00345103 -0.00228818,-0.00369217 -0.00793093,-0.00681095 -0.011189,-0.00983864 -0.0014415,-0.00133968 -0.00210598,-0.00106103 -0.00200417,-0.00304376 0.000375112,-0.00753974 -0.00281334,-0.0201328 -0.00292587,-0.0276189 -5.89461e-005,-0.00401369 -0.00258291,-0.00529443 -0.00556237,-0.00589461 -0.00136112,-0.000273296 -0.00281334,-0.000412623 -0.0041691,-0.000600179l0 0.153715z"/>
   <path id="_217478096" class="fil0 str0" d="M0.501347 0.501347l0 -0.153715c-0.00135576,0.000187556 -0.00280798,0.000326883 -0.0041691,0.000600179 -0.00297946,0.000600179 -0.00550342,0.00187556 -0.00556237,0.00589461 -0.000112533,0.00748616 -0.00330098,0.0200792 -0.00292587,0.0276189 0.000101816,0.00198273 -0.000562667,0.00170408 -0.00200417,0.00304376 -0.00325811,0.00302769 -0.00890086,0.00614647 -0.011189,0.00983864 -0.000798452,0.00129146 -0.000525156,0.0019613 -0.000289372,0.00345103 0.00329562,0.0204543 0.0160762,0.0414659 0.0176302,0.0616255 0.00012861,0.00169872 0.000133968,0.00271688 -0.000648407,0.00372432 -0.00162906,0.00211134 -0.00853647,0.00496755 -0.0111783,0.00462995 -0.00126466,-0.000160762 -0.00198273,-0.000884192 -0.00309199,-0.00217565 -0.0131611,-0.0153528 -0.0189753,-0.0392474 -0.0311128,-0.0560417 -0.000884192,-0.00122179 -0.00116285,-0.00189163 -0.00264186,-0.00223459 -0.00422804,-0.000996725 -0.0104227,0.000787734 -0.0148705,0.000948496 -0.00196666,7.50223e-005 -0.00223995,0.000739506 -0.00357428,-0.000734147 -0.00505865,-0.00559452 -0.0162209,-0.0122447 -0.0215904,-0.0174534 -0.00288836,-0.00280262 -0.00557309,-0.00192379 -0.00810777,-0.000241143 -0.00251861,0.00167728 -0.00421733,0.003376 -0.00588925,0.00589461 -0.001688,0.00253468 -0.00256683,0.00521941 0.000235784,0.00810777 0.00520869,0.00536945 0.0118589,0.0165317 0.0174588,0.0215904 0.00146829,0.00133433 0.000803811,0.00160762 0.000734147,0.00357428 -0.000166121,0.00444775 -0.00194522,0.0106425 -0.000953855,0.0148705 0.000342959,0.00147901 0.0010128,0.00175767 0.00223459,0.00264186 0.0167943,0.0121375 0.0406889,0.0179518 0.0560417,0.0311128 0.00129146,0.00110926 0.00201489,0.00182733 0.00217565,0.00309199 0.0003376,0.00264186 -0.00251861,0.00954927 -0.00462995,0.0111783 -0.00100744,0.000782376 -0.0020256,0.000777017 -0.00372432,0.000648407 -0.0201596,-0.00155403 -0.0411658,-0.0143346 -0.0616255,-0.0176302 -0.00148973,-0.000235784 -0.00215957,-0.00050908 -0.00345103,0.000289372 -0.00369217,0.00228818 -0.00681095,0.00793093 -0.00983864,0.011189 -0.00133968,0.0014415 -0.00106103,0.00210598 -0.00304376,0.00200417 -0.00753974,-0.000375112 -0.0201328,0.00281334 -0.0276189,0.00292587 -0.00401369,5.89461e-005 -0.00529443,0.00258291 -0.00589461,0.00556237 -0.000273296,0.00136112 -0.000412623,0.00281334 -0.000600179,0.0041691l0.153715 0z"/>
   <path id="_217478288" class="fil0 str0" d="M0.501347 0.00227746l-0.153715 0c0.000187556,0.00135576 0.000326883,0.00280798 0.000600179,0.0041691 0.000600179,0.00297946 0.00187556,0.00550342 0.00589461,0.00556237 0.00748616,0.000112533 0.0200792,0.00330098 0.0276189,0.00292587 0.00198273,-0.000101816 0.00170408,0.000562667 0.00304376,0.00200417 0.00302769,0.00325811 0.00614647,0.00890086 0.00983864,0.011189 0.00129146,0.000798452 0.0019613,0.000525156 0.00345103,0.000289372 0.0204543,-0.00329562 0.0414659,-0.0160762 0.0616255,-0.0176302 0.00169872,-0.00012861 0.00271688,-0.000133968 0.00372432,0.000648407 0.00211134,0.00162906 0.00496755,0.00853647 0.00462995,0.0111783 -0.000160762,0.00126466 -0.000884192,0.00198273 -0.00217565,0.00309199 -0.0153528,0.0131611 -0.0392474,0.0189753 -0.0560417,0.0311128 -0.00122179,0.000884192 -0.00189163,0.00116285 -0.00223459,0.00264186 -0.000996725,0.00422804 0.000787734,0.0104227 0.000948496,0.0148705 7.50223e-005,0.00196666 0.000739506,0.00223995 -0.000734147,0.00357428 -0.00559452,0.00505865 -0.0122447,0.0162209 -0.0174534,0.0215904 -0.00280262,0.00288836 -0.00192379,0.00557309 -0.000241143,0.00810777 0.00167728,0.00251861 0.003376,0.00421733 0.00589461,0.00588925 0.00253468,0.001688 0.00521941,0.00256683 0.00810777,-0.000235784 0.00536945,-0.00520869 0.0165317,-0.0118589 0.0215904,-0.0174588 0.00133433,-0.00146829 0.00160762,-0.000803811 0.00357428,-0.000734147 0.00444775,0.000166121 0.0106425,0.00194522 0.0148705,0.000953855 0.00147901,-0.000342959 0.00175767,-0.0010128 0.00264186,-0.00223459 0.0121375,-0.0167943 0.0179518,-0.0406889 0.0311128,-0.0560417 0.00110926,-0.00129146 0.00182733,-0.00201489 0.00309199,-0.00217565 0.00264186,-0.0003376 0.00954927,0.00251861 0.0111783,0.00462995 0.000782376,0.00100744 0.000777017,0.0020256 0.000648407,0.00372432 -0.00155403,0.0201596 -0.0143346,0.0411658 -0.0176302,0.0616255 -0.000235784,0.00148973 -0.00050908,0.00215957 0.000289372,0.00345103 0.00228818,0.00369217 0.00793093,0.00681095 0.011189,0.00983864 0.0014415,0.00133968 0.00210598,0.00106103 0.00200417,0.00304376 -0.000375112,0.00753974 0.00281334,0.0201328 0.00292587,0.0276189 5.89461e-005,0.00401369 0.00258291,0.00529443 0.00556237,0.00589461 0.00136112,0.000273296 0.00281334,0.000412623 0.0041691,0.000600179l0 -0.153715z"/>
   <path id="_217469504" class="fil0 str0" d="M0.00227746 0.00227746l0 0.153715c0.00135576,-0.000187556 0.00280798,-0.000326883 0.0041691,-0.000600179 0.00297946,-0.000600179 0.00550342,-0.00187556 0.00556237,-0.00589461 0.000112533,-0.00748616 0.00330098,-0.0200792 0.00292587,-0.0276189 -0.000101816,-0.00198273 0.000562667,-0.00170408 0.00200417,-0.00304376 0.00325811,-0.00302769 0.00890086,-0.00614647 0.011189,-0.00983864 0.000798452,-0.00129146 0.000525156,-0.0019613 0.000289372,-0.00345103 -0.00329562,-0.0204543 -0.0160762,-0.0414659 -0.0176302,-0.0616255 -0.00012861,-0.00169872 -0.000133968,-0.00271688 0.000648407,-0.00372432 0.00162906,-0.00211134 0.00853647,-0.00496755 0.0111783,-0.00462995 0.00126466,0.000160762 0.00198273,0.000884192 0.00309199,0.00217565 0.0131611,0.0153528 0.0189753,0.0392474 0.0311128,0.0560417 0.000884192,0.00122179 0.00116285,0.00189163 0.00264186,0.00223459 0.00422804,0.000996725 0.0104227,-0.000787734 0.0148705,-0.000948496 0.00196666,-7.50223e-005 0.00223995,-0.000739506 0.00357428,0.000734147 0.00505865,0.00559452 0.0162209,0.0122447 0.0215904,0.0174534 0.00288836,0.00280262 0.00557309,0.00192379 0.00810777,0.000241143 0.00251861,-0.00167728 0.00421733,-0.003376 0.00588925,-0.00589461 0.001688,-0.00253468 0.00256683,-0.00521941 -0.000235784,-0.00810777 -0.00520869,-0.00536945 -0.0118589,-0.0165317 -0.0174588,-0.0215904 -0.00146829,-0.00133433 -0.000803811,-0.00160762 -0.000734147,-0.00357428 0.000166121,-0.00444775 0.00194522,-0.0106425 0.000953855,-0.0148705 -0.000342959,-0.00147901 -0.0010128,-0.00175767 -0.00223459,-0.00264186 -0.0167943,-0.0121375 -0.0406889,-0.0179518 -0.0560417,-0.0311128 -0.00129146,-0.00110926 -0.00201489,-0.00182733 -0.00217565,-0.00309199 -0.0003376,-0.00264186 0.00251861,-0.00954927 0.00462995,-0.0111783 0.00100744,-0.000782376 0.0020256,-0.000777017 0.00372432,-0.000648407 0.0201596,0.00155403 0.0411658,0.0143346 0.0616255,0.0176302 0.00148973,0.000235784 0.00215957,0.00050908 0.00345103,-0.000289372 0.00369217,-0.00228818 0.00681095,-0.00793093 0.00983864,-0.011189 0.00133968,-0.0014415 0.00106103,-0.00210598 0.00304376,-0.00200417 0.00753974,0.000375112 0.0201328,-0.00281334 0.0276189,-0.00292587 0.00401369,-5.89461e-005 0.00529443,-0.00258291 0.00589461,-0.00556237 0.000273296,-0.00136112 0.000412623,-0.00281334 0.000600179,-0.0041691l-0.153715 0z"/>
   <path id="_217469720" class="fil0 str0" d="M0.00227746 0.480555c0.0114784,0 0.0207919,0.00931348 0.0207919,0.0207919l-0.0207919 0 0 -0.0207919z"/>
   <path id="_217478072" class="fil0 str0" d="M0.480555 0.501347c0,-0.0114784 0.00931348,-0.0207919 0.0207919,-0.0207919l0 0.0207919 -0.0207919 0z"/>
   <path id="_217478048" class="fil0 str0" d="M0.501347 0.0230694c-0.0114784,0 -0.0207919,-0.00931348 -0.0207919,-0.0207919l0.0207919 0 0 0.0207919z"/>
   <path id="_217467128" class="fil0 str0" d="M0.0230694 0.00227746c0,0.0114784 -0.00931348,0.0207919 -0.0207919,0.0207919l0 -0.0207919 0.0207919 0z"/>
   <path id="_217469480" class="fil0 str0" d="M0.250784 0.453499c-0.00792557,-0.00359035 -0.0134397,-0.0104281 -0.020256,-0.0156529 -0.00301697,-0.00231497 -0.00241679,-0.00256148 -0.00234713,-0.00645728 0.000107175,-0.00566418 9.64573e-005,-0.0113498 0.000514439,-0.0169497 0.0003376,-0.00450134 -2.14349e-005,-0.0029741 -0.00425484,-0.00292587 -0.00610896,6.96636e-005 -0.0116499,-0.00138255 -0.0174856,-0.00136648 -0.00248645,5.35874e-006 -0.00289908,-0.000739506 -0.00488181,-0.00232033 -0.00613039,-0.00488717 -0.0125127,-0.00960821 -0.0182465,-0.0147633 -0.00327955,-0.00294731 -0.00280798,-0.00278118 -0.000734147,-0.00668234 0.00410479,-0.00770586 0.0103745,-0.0167943 0.0189914,-0.0175231 0.0106103,-0.000905627 0.0244198,0.00279726 0.0331491,-0.00267401 0.00953855,-0.00598035 0.00236856,-0.0270884 0.0149455,-0.035432 0.00155403,-0.00103424 0.0017148,-0.00103424 0.00326883,0 0.012577,0.00834355 0.00540697,0.0294516 0.0149455,0.035432 0.00872938,0.00547127 0.0225388,0.00176838 0.0331491,0.00267401 0.00861685,0.000728788 0.0148866,0.00981721 0.0189914,0.0175231 0.00207383,0.00390116 0.0025454,0.00373504 -0.000734147,0.00668234 -0.00573385,0.0051551 -0.0121161,0.00987615 -0.0182465,0.0147633 -0.00198273,0.00158083 -0.00239536,0.00232569 -0.00488181,0.00232033 -0.00583566,-1.60762e-005 -0.0113766,0.00143614 -0.0174856,0.00136648 -0.0042334,-4.82286e-005 -0.00459244,-0.00157547 -0.00425484,0.00292587 0.000417981,0.00559988 0.000407264,0.0112855 0.000514439,0.0169497 6.96636e-005,0.0038958 0.000669842,0.0041423 -0.00234713,0.00645728 -0.00690741,0.00529443 -0.0124751,0.0122447 -0.0205722,0.0157922 -0.000809169,0.000353677 -0.00093242,0.000230426 -0.00174159,-0.000139327z"/>
   <path id="_217474976" class="fil0 str0" d="M0.453499 0.252841c-0.00359035,0.00792557 -0.0104281,0.0134397 -0.0156529,0.020256 -0.00231497,0.00301697 -0.00256148,0.00241679 -0.00645728,0.00234713 -0.00566418,-0.000107175 -0.0113498,-9.64573e-005 -0.0169497,-0.000514439 -0.00450134,-0.0003376 -0.0029741,2.14349e-005 -0.00292587,0.00425484 6.96636e-005,0.00610896 -0.00138255,0.0116499 -0.00136648,0.0174856 5.35874e-006,0.00248645 -0.000739506,0.00289908 -0.00232033,0.00488181 -0.00488717,0.00613039 -0.00960821,0.0125127 -0.0147633,0.0182465 -0.00294731,0.00327955 -0.00278118,0.00280798 -0.00668234,0.000734147 -0.00770586,-0.00410479 -0.0167943,-0.0103745 -0.0175231,-0.0189914 -0.000905627,-0.0106103 0.00279726,-0.0244198 -0.00267401,-0.0331491 -0.00598035,-0.00953855 -0.0270884,-0.00236856 -0.035432,-0.0149455 -0.00103424,-0.00155403 -0.00103424,-0.0017148 0,-0.00326883 0.00834355,-0.012577 0.0294516,-0.00540697 0.035432,-0.0149455 0.00547127,-0.00872938 0.00176838,-0.0225388 0.00267401,-0.0331491 0.000728788,-0.00861685 0.00981721,-0.0148866 0.0175231,-0.0189914 0.00390116,-0.00207383 0.00373504,-0.0025454 0.00668234,0.000734147 0.0051551,0.00573385 0.00987615,0.0121161 0.0147633,0.0182465 0.00158083,0.00198273 0.00232569,0.00239536 0.00232033,0.00488181 -1.60762e-005,0.00583566 0.00143614,0.0113766 0.00136648,0.0174856 -4.82286e-005,0.0042334 -0.00157547,0.00459244 0.00292587,0.00425484 0.00559988,-0.000417981 0.0112855,-0.000407264 0.0169497,-0.000514439 0.0038958,-6.96636e-005 0.0041423,-0.000669842 0.00645728,0.00234713 0.00529443,0.00690741 0.0122447,0.0124751 0.0157922,0.0205722 0.000353677,0.000809169 0.000230426,0.00093242 -0.000139327,0.00174159z"/>
   <path id="_217453808" class="fil0 str0" d="M0.252841 0.0501256c0.00792557,0.00359035 0.0134397,0.0104281 0.020256,0.0156529 0.00301697,0.00231497 0.00241679,0.00256148 0.00234713,0.00645728 -0.000107175,0.00566418 -9.64573e-005,0.0113498 -0.000514439,0.0169497 -0.0003376,0.00450134 2.14349e-005,0.0029741 0.00425484,0.00292587 0.00610896,-6.96636e-005 0.0116499,0.00138255 0.0174856,0.00136648 0.00248645,-5.35874e-006 0.00289908,0.000739506 0.00488181,0.00232033 0.00613039,0.00488717 0.0125127,0.00960821 0.0182465,0.0147633 0.00327955,0.00294731 0.00280798,0.00278118 0.000734147,0.00668234 -0.00410479,0.00770586 -0.0103745,0.0167943 -0.0189914,0.0175231 -0.0106103,0.000905627 -0.0244198,-0.00279726 -0.0331491,0.00267401 -0.00953855,0.00598035 -0.00236856,0.0270884 -0.0149455,0.035432 -0.00155403,0.00103424 -0.0017148,0.00103424 -0.00326883,0 -0.012577,-0.00834355 -0.00540697,-0.0294516 -0.0149455,-0.035432 -0.00872938,-0.00547127 -0.0225388,-0.00176838 -0.0331491,-0.00267401 -0.00861685,-0.000728788 -0.0148866,-0.00981721 -0.0189914,-0.0175231 -0.00207383,-0.00390116 -0.0025454,-0.00373504 0.000734147,-0.00668234 0.00573385,-0.0051551 0.0121161,-0.00987615 0.0182465,-0.0147633 0.00198273,-0.00158083 0.00239536,-0.00232569 0.00488181,-0.00232033 0.00583566,1.60762e-005 0.0113766,-0.00143614 0.0174856,-0.00136648 0.0042334,4.82286e-005 0.00459244,0.00157547 0.00425484,-0.00292587 -0.000417981,-0.00559988 -0.000407264,-0.0112855 -0.000514439,-0.0169497 -6.96636e-005,-0.0038958 -0.000669842,-0.0041423 0.00234713,-0.00645728 0.00690741,-0.00529443 0.0124751,-0.0122447 0.0205722,-0.0157922 0.000809169,-0.000353677 0.00093242,-0.000230426 0.00174159,0.000139327z"/>
   <path id="_217462136" class="fil0 str0" d="M0.0501256 0.250784c0.00359035,-0.00792557 0.0104281,-0.0134397 0.0156529,-0.020256 0.00231497,-0.00301697 0.00256148,-0.00241679 0.00645728,-0.00234713 0.00566418,0.000107175 0.0113498,9.64573e-005 0.0169497,0.000514439 0.00450134,0.0003376 0.0029741,-2.14349e-005 0.00292587,-0.00425484 -6.96636e-005,-0.00610896 0.00138255,-0.0116499 0.00136648,-0.0174856 -5.35874e-006,-0.00248645 0.000739506,-0.00289908 0.00232033,-0.00488181 0.00488717,-0.00613039 0.00960821,-0.0125127 0.0147633,-0.0182465 0.00294731,-0.00327955 0.00278118,-0.00280798 0.00668234,-0.000734147 0.00770586,0.00410479 0.0167943,0.0103745 0.0175231,0.0189914 0.000905627,0.0106103 -0.00279726,0.0244198 0.00267401,0.0331491 0.00598035,0.00953855 0.0270884,0.00236856 0.035432,0.0149455 0.00103424,0.00155403 0.00103424,0.0017148 0,0.00326883 -0.00834355,0.012577 -0.0294516,0.00540697 -0.035432,0.0149455 -0.00547127,0.00872938 -0.00176838,0.0225388 -0.00267401,0.0331491 -0.000728788,0.00861685 -0.00981721,0.0148866 -0.0175231,0.0189914 -0.00390116,0.00207383 -0.00373504,0.0025454 -0.00668234,-0.000734147 -0.0051551,-0.00573385 -0.00987615,-0.0121161 -0.0147633,-0.0182465 -0.00158083,-0.00198273 -0.00232569,-0.00239536 -0.00232033,-0.00488181 1.60762e-005,-0.00583566 -0.00143614,-0.0113766 -0.00136648,-0.0174856 4.82286e-005,-0.0042334 0.00157547,-0.00459244 -0.00292587,-0.00425484 -0.00559988,0.000417981 -0.0112855,0.000407264 -0.0169497,0.000514439 -0.0038958,6.96636e-005 -0.0041423,0.000669842 -0.00645728,-0.00234713 -0.00529443,-0.00690741 -0.0122447,-0.0124751 -0.0157922,-0.0205722 -0.000353677,-0.000809169 -0.000230426,-0.00093242 0.000139327,-0.00174159z"/>
   <path id="_210704672" class="fil0 str0" d="M0.199152 0.211681c-0.00624293,0.0053641 -0.0199184,0.0130753 -0.0168693,0.0229515 0.00100208,0.00324204 0.00469425,0.00290979 0.00739506,0.00319917 0.0101655,0.0011039 0.0182251,0.00376719 0.0191628,0.0116767 0.000203632,0.00173623 0.000203632,0.00300625 0,0.00474248 -0.000937779,0.0079095 -0.00899732,0.0105674 -0.0191628,0.0116713 -0.0027008,0.000294731 -0.00639297,-3.75112e-005 -0.00739506,0.00320452 -0.00304912,0.00987615 0.0106264,0.0175874 0.0168693,0.0229515 0.0039226,0.00337065 0.00910985,0.00831676 0.0124644,0.0122126 0.00535874,0.00624293 0.0130753,0.0199184 0.0229461,0.0168693 0.00324204,-0.00100208 0.00290979,-0.00469425 0.00320452,-0.00739506 0.0011039,-0.0101709 0.00376719,-0.0182251 0.0116713,-0.0191628 0.00173623,-0.000203632 0.00301161,-0.000203632 0.00474784,0 0.00790414,0.000937779 0.0105674,0.00899196 0.0116713,0.0191628 0.000294731,0.0027008 -3.75112e-005,0.00639297 0.00320452,0.00739506 0.00987079,0.00304912 0.0175874,-0.0106264 0.0229461,-0.0168693 0.0034671,-0.00402977 0.00819887,-0.0090134 0.0122179,-0.0124644 0.00623757,-0.0053641 0.0199184,-0.0130753 0.0168693,-0.0229461 -0.00100208,-0.00324204 -0.00469961,-0.00290979 -0.00739506,-0.00320452 -0.0101709,-0.0011039 -0.0182304,-0.00376719 -0.0191628,-0.0116713 -0.000208991,-0.00173623 -0.000208991,-0.00301161 0,-0.00474784 0.00093242,-0.0079095 0.00899196,-0.0105674 0.0191628,-0.0116713 0.00269544,-0.000294731 0.00639297,3.75112e-005 0.00739506,-0.00320452 0.00304912,-0.00987079 -0.0106317,-0.0175874 -0.0168693,-0.0229461 -0.00403513,-0.0034671 -0.0090134,-0.00819887 -0.0124644,-0.0122179 -0.0053641,-0.00623757 -0.0130753,-0.0199184 -0.0229515,-0.0168693 -0.00324204,0.00100208 -0.00290979,0.00469425 -0.00320452,0.00739506 -0.0011039,0.0101709 -0.00376183,0.0182304 -0.0116713,0.0191628 -0.00173623,0.000208991 -0.00300625,0.000208991 -0.00474248,0 -0.0079095,-0.00093242 -0.0105728,-0.00899196 -0.0116767,-0.0191628 -0.000289372,-0.0027008 4.28699e-005,-0.00639297 -0.00319917,-0.00739506 -0.00987615,-0.00304912 -0.0175874,0.0106317 -0.0229515,0.0168693 -0.00337065,0.0039226 -0.00831676,0.00911521 -0.0122126,0.0124644z"/>
   <path id="_210721736" class="fil0 str0" d="M0.23011 0.229322c0.00129681,0.00510152 0.00403513,0.0105514 0.00334385,0.0199774 -6.96636e-005,0.000980649 -6.96636e-005,0.00402441 0,0.0049997 0.000691277,0.00943138 -0.00240071,0.0144739 -0.00369217,0.0195755 0.00510152,-0.00129681 0.0101762,-0.00431378 0.0196023,-0.00362251 0.000980649,6.96636e-005 0.00401905,6.96636e-005 0.0049997,0 0.00942602,-0.000691277 0.0149187,0.00208991 0.0200202,0.00338136 -0.00129681,-0.00510152 -0.00475856,-0.00986543 -0.00406728,-0.0192915 6.96636e-005,-0.000980649 6.96636e-005,-0.00401905 0,-0.0049997 -0.000691277,-0.00942602 0.00208991,-0.0149187 0.00338136,-0.0200202 -0.00510152,0.00129681 -0.00986543,0.00475856 -0.0192915,0.00406728 -0.000980649,-6.96636e-005 -0.00402441,-6.96636e-005 -0.0049997,0 -0.00943138,0.000691277 -0.0141953,-0.00277047 -0.0192968,-0.00406728z"/>
  </g>
 </g>
</svg>
